<?xml version="1.0" encoding="UTF-8"?>
<svg version="1.1" xmlns="http://www.w3.org/2000/svg" width="500" height="500">
<path d="M0 0 C165 0 330 0 500 0 C500 165 500 330 500 500 C335 500 170 500 0 500 C0 335 0 170 0 0 Z " fill="#FEFEFE" transform="translate(0,0)"/>
<path d="M0 0 C7.75990717 0.84653533 12.89150134 3.27065902 17.94726562 9.33618164 C22.75850285 16.02471805 27.01812747 22.88771249 31.0625 30.0625 C32.04136435 31.77895932 33.02023912 33.4954128 33.99972534 35.21151733 C35.0058227 36.97601733 36.00920395 38.7420404 37.01220703 40.50830078 C40.14656457 46.02177893 43.32600938 51.50927962 46.5 57 C47.7489191 59.16393486 48.99761649 61.32799769 50.24609375 63.4921875 C51.17397705 65.1004541 51.17397705 65.1004541 52.12060547 66.74121094 C54.00980166 70.01699566 55.89764109 73.29355893 57.78515625 76.5703125 C63.83055159 87.06232094 69.89110219 97.54481676 76 108 C80.83667887 116.2778212 85.64864036 124.56941871 90.4375 132.875 C91.05286621 133.94218262 91.66823242 135.00936523 92.30224609 136.10888672 C95.22863199 141.18601752 98.15258603 146.2645373 101.07307434 151.34506226 C102.09649255 153.1250134 103.12053013 154.90460669 104.14477539 156.68408203 C105.42778627 158.91349337 106.70960088 161.14359376 107.98999023 163.37451172 C110.92019628 168.46443461 113.87991513 173.49276301 117.14794922 178.37451172 C118 180 118 180 118 183 C96.99378428 185.08211389 76.09182343 173.40943526 60 161 C55.55678277 157.32580114 51.3822759 153.46840556 47.4296875 149.26953125 C39.86304375 141.27271388 29.84738778 132.51087583 18.33984375 131.76171875 C-1.35251861 131.25845701 -13.23510434 140.57908629 -28 153 C-50.98719456 172.25648593 -72.80484138 182.14509061 -103 181 C-102.31548513 177.62554794 -101.03557892 174.88998639 -99.4453125 171.84375 C-98.91824707 170.83054687 -98.39118164 169.81734375 -97.84814453 168.7734375 C-97.27950684 167.69320312 -96.71086914 166.61296875 -96.125 165.5 C-95.25077393 163.83324219 -95.25077393 163.83324219 -94.35888672 162.1328125 C-92.57968219 158.75140503 -90.79143747 155.37494022 -89 152 C-88.47921875 151.01515625 -87.9584375 150.0303125 -87.421875 149.015625 C-86.0006056 146.33765423 -84.56599183 143.66740063 -83.125 141 C-82.71008301 140.21947266 -82.29516602 139.43894531 -81.86767578 138.63476562 C-74.79458538 125.69120597 -66.01271167 116.1295551 -52 111 C-41.49881487 108.06198296 -30.79580027 106.82241131 -19.99609375 105.5390625 C-4.75599757 103.63600034 9.10268813 100.6685592 19 88 C22.59970673 81.99782825 25.44705623 75.83295257 27 69 C25.8553125 68.814375 25.8553125 68.814375 24.6875 68.625 C22.68937573 68.28633487 20.69248692 67.9311381 18.71484375 67.48828125 C1.14831339 63.7524128 -17.71299952 65.81464662 -34.203125 72.81640625 C-37.09426466 74.03989133 -40.01198627 75.04082991 -43 76 C-39.45365993 68.51808741 -35.53172691 61.36686888 -31.30273438 54.25708008 C-27.35472985 47.61967758 -23.48097884 40.94125739 -19.625 34.25 C-18.67367187 32.59967773 -18.67367187 32.59967773 -17.703125 30.91601562 C-11.77623946 20.62544551 -5.88017515 10.31732173 0 0 Z " fill="#0499DE" transform="translate(242,158)"/>
<path d="M0 0 C6.67913388 5.64521223 12.8860687 11.75315715 19 18 C16 19 16 19 14.3359375 18.22265625 C13.68882812 17.83980469 13.04171875 17.45695312 12.375 17.0625 C4.71097705 13.46254159 -4.74309926 13.8664365 -12.8984375 15.625 C-24.26075461 19.74338031 -33.88318348 28.33051192 -43 36 C-65.98719456 55.25648593 -87.80484138 65.14509061 -118 64 C-117.31548513 60.62554794 -116.03557892 57.88998639 -114.4453125 54.84375 C-113.91824707 53.83054687 -113.39118164 52.81734375 -112.84814453 51.7734375 C-112.27950684 50.69320312 -111.71086914 49.61296875 -111.125 48.5 C-110.54218262 47.38882813 -109.95936523 46.27765625 -109.35888672 45.1328125 C-107.57968219 41.75140503 -105.79143747 38.37494022 -104 35 C-103.47921875 34.01515625 -102.9584375 33.0303125 -102.421875 32.015625 C-101.0006056 29.33765423 -99.56599183 26.66740063 -98.125 24 C-97.71008301 23.21947266 -97.29516602 22.43894531 -96.86767578 21.63476562 C-89.21407859 7.62889461 -79.64437871 -2.01271012 -64.25 -6.8671875 C-41.47093301 -12.74370212 -19.26531496 -15.62561376 0 0 Z " fill="#056AA6" transform="translate(257,275)"/>
<path d="M0 0 C7.75990717 0.84653533 12.89150134 3.27065902 17.94726562 9.33618164 C22.75850285 16.02471805 27.01812747 22.88771249 31.0625 30.0625 C32.04136435 31.77895932 33.02023912 33.4954128 33.99972534 35.21151733 C35.0058227 36.97601733 36.00920395 38.7420404 37.01220703 40.50830078 C39.53553885 44.94695678 42.08924772 49.36796983 44.64404297 53.78857422 C45.87778761 55.92336467 47.10989424 58.05910263 48.34033203 60.19580078 C51.27680754 65.29493512 54.2224951 70.38818345 57.19747925 75.4649353 C58.60806667 77.87323876 60.01393561 80.2842803 61.41943359 82.69555664 C62.41824587 84.40455557 63.4239023 86.1095486 64.4296875 87.81445312 C65.32880859 89.35842773 65.32880859 89.35842773 66.24609375 90.93359375 C66.77904053 91.84165771 67.3119873 92.74972168 67.86108398 93.68530273 C69 96 69 96 69 99 C68.17757812 98.14277344 67.35515625 97.28554687 66.5078125 96.40234375 C49.19221676 78.56772352 27.81697084 66.26544835 2.4375 65.6875 C-10.24965756 65.74990085 -22.51072516 67.85177616 -34.203125 72.81640625 C-37.09426466 74.03989133 -40.01198627 75.04082991 -43 76 C-39.45365993 68.51808741 -35.53172691 61.36686888 -31.30273438 54.25708008 C-27.35472985 47.61967758 -23.48097884 40.94125739 -19.625 34.25 C-18.99078125 33.14978516 -18.3565625 32.04957031 -17.703125 30.91601562 C-11.77623946 20.62544551 -5.88017515 10.31732173 0 0 Z " fill="#04AEEC" transform="translate(242,158)"/>
<path d="M0 0 C1.33333333 0.66666667 2.66666667 1.33333333 4 2 C4.680625 2.268125 5.36125 2.53625 6.0625 2.8125 C8.69106364 4.42355513 9.6917299 6.24574716 11 9 C10.67 9.66 10.34 10.32 10 11 C8.33035479 9.35718838 6.6643536 7.71067239 5 6.0625 C4.071875 5.14597656 3.14375 4.22945312 2.1875 3.28515625 C0 1 0 1 0 0 Z " fill="#27B4EB" transform="translate(301,246)"/>
</svg>
